<?xml version="1.0" encoding="UTF-8" standalone="no"?>
<!-- Created with Inkscape (http://www.inkscape.org/) -->

<svg
   width="60.481613mm"
   height="69.83815mm"
   viewBox="0 0 60.481613 69.83815"
   version="1.1"
   id="svg63649"
   inkscape:version="1.1.2 (b8e25be833, 2022-02-05)"
   sodipodi:docname="blue_dwarf_space_notext_logo.svg"
   xmlns:inkscape="http://www.inkscape.org/namespaces/inkscape"
   xmlns:sodipodi="http://sodipodi.sourceforge.net/DTD/sodipodi-0.dtd"
   xmlns="http://www.w3.org/2000/svg"
   xmlns:svg="http://www.w3.org/2000/svg">
  <sodipodi:namedview
     id="namedview63651"
     pagecolor="#ffffff"
     bordercolor="#666666"
     borderopacity="1.0"
     inkscape:pageshadow="2"
     inkscape:pageopacity="0.0"
     inkscape:pagecheckerboard="0"
     inkscape:document-units="mm"
     showgrid="false"
     fit-margin-top="0"
     fit-margin-left="0"
     fit-margin-right="0"
     fit-margin-bottom="0"
     inkscape:zoom="0.733172"
     inkscape:cx="300.06602"
     inkscape:cy="336.8923"
     inkscape:window-width="1920"
     inkscape:window-height="1009"
     inkscape:window-x="-8"
     inkscape:window-y="-8"
     inkscape:window-maximized="1"
     inkscape:current-layer="layer1" />
  <defs
     id="defs63646" />
  <g
     inkscape:label="Layer 1"
     inkscape:groupmode="layer"
     id="layer1"
     transform="translate(-25.694796,-59.630135)">
    <g
       id="g37943"
       transform="matrix(0.23704816,0.13685982,-0.13685982,0.23704816,36.91675,342.39646)"
       inkscape:export-filename="C:\Users\kelly\OneDrive\Documents\BlueDwarf\imagery\new logo\blue_dwarf_space_notext_logo.png"
       inkscape:export-xdpi="89.833382"
       inkscape:export-ydpi="89.833382">
      <path
         id="path28955"
         style="color:#000000;fill:#22cfd5;fill-opacity:1;stroke:#22cfd5;stroke-width:0.529167;stroke-miterlimit:4;stroke-dasharray:none;stroke-opacity:1"
         d="m -388.55377,-894.17523 c -0.55574,0.009 -1.1126,0.0238 -1.66961,0.0452 -5.09265,0.19569 -10.2338,0.92969 -15.36099,2.24909 -11.98328,3.08372 -22.65453,9.20749 -31.27133,17.3489 -13.80905,12.54096 -22.71319,30.31811 -22.79596,50.19979 -0.0283,6.78253 1.03149,13.40337 3.01224,19.66595 9.58446,32.31639 43.73183,53.42767 76.94466,44.42579 29.79766,-8.07626 49.51673,-39.34592 41.02605,-69.61599 -7.35541,-26.22271 -35.07131,-43.55648 -61.75626,-35.74551 -6.73165,1.97043 -12.77504,5.49905 -17.76937,10.07983 -9.31018,8.07721 -15.23913,19.84273 -14.73905,33.00786 0.15687,4.1293 1.005,8.14954 2.41835,11.92464 6.34344,18.44533 26.54206,30.42157 45.66295,24.07019 15.50702,-5.15094 25.74255,-22.27651 19.90283,-38.18121 -4.38466,-11.94168 -18.04057,-19.86076 -30.32613,-14.62063 -1.85176,0.78983 -3.56951,1.90709 -5.07311,3.26021 -0.9932,0.78892 -1.90565,1.6704 -2.70519,2.63588 -2.87208,3.46804 -4.32835,7.97816 -3.15844,12.74997 0.21193,0.86445 0.55815,1.72564 0.99553,2.55548 0.18232,0.42818 0.3815,0.85396 0.6127,1.27496 1.32794,2.41798 3.79928,4.53155 6.53505,5.49416 2.73574,0.96259 5.7518,0.76141 8.10128,-1.47601 0.90023,-0.85729 1.56073,-2.70726 1.51767,-4.28461 -0.0215,-0.78867 -0.2224,-1.51539 -0.69523,-2.00213 -0.47279,-0.48672 -1.55695,-1.61939 -3.56951,-0.81893 l -0.0181,0.26396 c 0.97505,0.0662 1.52549,0.42228 1.80975,0.93153 0.28424,0.50924 0.2994,1.19643 0.12558,1.92388 -0.34756,1.45491 -1.46533,3.04341 -2.44228,3.57605 -2.75662,1.50299 -5.5981,0.94005 -7.93227,-0.6573 -1.58773,-1.08653 -2.92096,-2.65859 -3.81965,-4.3716 -1.63234,-3.86615 -1.28337,-7.97895 0.378,-11.60274 1.03332,-2.25397 2.57358,-4.31558 4.45172,-6.00342 2.53408,-2.00635 5.6187,-3.38218 8.81526,-3.8371 13.05778,-1.85831 24.07679,9.20207 25.20869,21.73234 1.50983,16.71328 -12.68763,30.48775 -28.85899,31.4414 -16.14298,0.95196 -29.88875,-9.78126 -35.2687,-24.14192 -0.12653,-0.36791 -0.25739,-0.73353 -0.37266,-1.10653 -4.98565,-16.13052 0.8882,-32.78563 12.63209,-43.55135 7.7268,-6.69797 17.79157,-10.84537 28.4579,-11.09027 27.64238,-0.63466 49.81268,23.16016 50.12884,50.25058 0.36511,31.28226 -26.65385,56.2696 -57.38351,56.35804 -28.09351,0.0809 -51.57674,-19.47969 -59.61307,-45.02497 -0.17322,-0.58771 -0.34061,-1.17841 -0.49739,-1.77342 -6.641,-25.20383 2.36138,-50.84337 20.25906,-67.74197 13.02879,-11.82287 30.43488,-18.96982 48.91366,-18.78633 41.52464,0.41234 74.58061,35.96668 75.04259,76.78418 l -0.005,1.99623 0.11683,7.1e-4 0.14892,0.003 c 10e-6,-8e-4 -5e-5,-10e-4 -4e-5,-0.002 l 8.3e-4,-0.11062 0.0501,-20.5117 -0.1287,-4.7e-4 0.12396,-0.0308 c -8.80369,-34.90634 -41.14977,-59.70001 -76.16192,-59.15989 z" />
      <path
         sodipodi:type="star"
         style="fill:#02597f;fill-opacity:1;stroke-width:0.188976"
         id="path27924"
         inkscape:flatsided="false"
         sodipodi:sides="6"
         sodipodi:cx="-794.84521"
         sodipodi:cy="-3291.9839"
         sodipodi:r1="1053.1699"
         sodipodi:r2="52.658497"
         sodipodi:arg1="0"
         sodipodi:arg2="0.52359878"
         inkscape:rounded="0"
         inkscape:randomized="0"
         transform="matrix(0.10901735,0,0,0.10901735,-305.91331,-460.12918)"
         inkscape:transform-center-x="2.5550374e-06"
         d="m 258.32471,-3291.9839 -1007.56633,26.3293 480.98137,885.7426 -526.58497,-859.4134 -526.58498,859.4134 480.98139,-885.7426 -1007.56629,-26.3293 1007.56629,-26.3292 -480.98139,-885.7427 526.58499,859.4134 526.58496,-859.4134 -480.98137,885.7427 z" />
      <g
         id="g37752">
        <g
           id="g28835"
           transform="translate(-346.99962,-188.68834)">
          <path
             id="path28336"
             style="fill:#02597f;stroke-width:0.00403979"
             inkscape:transform-center-x="4.4118365"
             inkscape:transform-center-y="9.327838"
             d="m -27.91827,-674.43458 -17.751018,24.55273 -17.543657,-24.55273 8.823668,18.65567 8.823669,18.65568 8.823669,-18.65568 z"
             sodipodi:nodetypes="ccccccc" />
          <path
             id="path28831"
             style="fill:#02597f;stroke-width:0.00403979"
             inkscape:transform-center-x="4.4118365"
             inkscape:transform-center-y="-9.327838"
             d="m -27.91827,-586.21382 -17.751018,-24.55273 -17.543657,24.55273 8.823668,-18.65567 8.823669,-18.65568 8.823669,18.65568 z"
             sodipodi:nodetypes="ccccccc" />
        </g>
        <g
           id="g28841"
           transform="rotate(60,-55.656521,-1025.1789)">
          <path
             id="path28837"
             style="fill:#02597f;stroke-width:0.00403979"
             inkscape:transform-center-x="4.4118365"
             inkscape:transform-center-y="9.327838"
             d="m -27.91827,-674.43458 -17.751018,24.55273 -17.543657,-24.55273 8.823668,18.65567 8.823669,18.65568 8.823669,-18.65568 z"
             sodipodi:nodetypes="ccccccc" />
          <path
             id="path28839"
             style="fill:#02597f;stroke-width:0.00403979"
             inkscape:transform-center-x="4.4118365"
             inkscape:transform-center-y="-9.327838"
             d="m -27.91827,-586.21382 -17.751018,-24.55273 -17.543657,24.55273 8.823668,-18.65567 8.823669,-18.65568 8.823669,18.65568 z"
             sodipodi:nodetypes="ccccccc" />
        </g>
        <g
           id="g28847"
           transform="rotate(120,-164.59579,-824.83853)">
          <path
             id="path28843"
             style="fill:#02597f;stroke-width:0.00403979"
             inkscape:transform-center-x="4.4118365"
             inkscape:transform-center-y="9.327838"
             d="m -27.91827,-674.43458 -17.751018,24.55273 -17.543657,-24.55273 8.823668,18.65567 8.823669,18.65568 8.823669,-18.65568 z"
             sodipodi:nodetypes="ccccccc" />
          <path
             id="path28845"
             style="fill:#02597f;stroke-width:0.00403979"
             inkscape:transform-center-x="4.4118365"
             inkscape:transform-center-y="-9.327838"
             d="m -27.91827,-586.21382 -17.751018,-24.55273 -17.543657,24.55273 8.823668,-18.65567 8.823669,-18.65568 8.823669,18.65568 z"
             sodipodi:nodetypes="ccccccc" />
        </g>
      </g>
      <g
         id="g28941"
         transform="translate(-346.99962,-188.68834)">
        <path
           id="path28851"
           style="fill:#02597f;stroke-width:0.00403979"
           inkscape:transform-center-x="-9.327838"
           inkscape:transform-center-y="-4.411838"
           d="m 44.695456,-612.57319 24.55273,-17.75101 -24.55273,-17.54366 18.65567,8.82367 18.65568,8.82367 -18.65568,8.82367 z"
           sodipodi:nodetypes="ccccccc" />
        <path
           id="path28937"
           style="fill:#02597f;stroke-width:0.00403979"
           inkscape:transform-center-x="9.327838"
           inkscape:transform-center-y="-4.411838"
           d="m -135.82667,-612.57319 -24.55273,-17.75101 24.55273,-17.54366 -18.65567,8.82367 -18.65568,8.82367 18.65568,8.82367 z"
           sodipodi:nodetypes="ccccccc" />
      </g>
      <g
         id="g28947"
         transform="rotate(60,-55.656521,-1025.0752)">
        <path
           id="path28943"
           style="fill:#02597f;stroke-width:0.00403979"
           inkscape:transform-center-x="-9.327838"
           inkscape:transform-center-y="-4.411838"
           d="m 44.695456,-612.57319 24.55273,-17.75101 -24.55273,-17.54366 18.65567,8.82367 18.65568,8.82367 -18.65568,8.82367 z"
           sodipodi:nodetypes="ccccccc" />
        <path
           id="path28945"
           style="fill:#02597f;stroke-width:0.00403979"
           inkscape:transform-center-x="9.327838"
           inkscape:transform-center-y="-4.411838"
           d="m -135.82667,-612.57319 -24.55273,-17.75101 24.55273,-17.54366 -18.65567,8.82367 -18.65568,8.82367 18.65568,8.82367 z"
           sodipodi:nodetypes="ccccccc" />
      </g>
      <g
         id="g28953"
         transform="rotate(120,-164.59579,-824.73485)">
        <path
           id="path28949"
           style="fill:#02597f;stroke-width:0.00403979"
           inkscape:transform-center-x="-9.327838"
           inkscape:transform-center-y="-4.411838"
           d="m 44.695456,-612.57319 24.55273,-17.75101 -24.55273,-17.54366 18.65567,8.82367 18.65568,8.82367 -18.65568,8.82367 z"
           sodipodi:nodetypes="ccccccc" />
        <path
           id="path28951"
           style="fill:#02597f;stroke-width:0.00403979"
           inkscape:transform-center-x="9.327838"
           inkscape:transform-center-y="-4.411838"
           d="m -135.82667,-612.57319 -24.55273,-17.75101 24.55273,-17.54366 -18.65567,8.82367 -18.65568,8.82367 18.65568,8.82367 z"
           sodipodi:nodetypes="ccccccc" />
      </g>
      <path
         style="color:#000000;fill:#22cfd5;fill-opacity:1;stroke:#22cfd5;stroke-width:0.529167;stroke-miterlimit:4;stroke-dasharray:none;stroke-opacity:1"
         d="m -362.99761,-770.84816 c -0.82556,0.59238 -1.66764,1.16306 -2.52388,1.71307 l 1.30328,2.12755 c 0.82571,-0.5157 1.6378,-1.05027 2.43448,-1.60457 z"
         id="path36497" />
      <path
         style="color:#000000;fill:#22cfd5;fill-opacity:1;stroke:#22cfd5;stroke-width:0.529167;stroke-miterlimit:4;stroke-dasharray:none;stroke-opacity:1"
         d="m -375.84747,-794.5113 c -1.1153,0.98803 -2.30269,1.89976 -3.55224,2.72645 l 1.28003,2.08928 c 1.22921,-0.76811 2.40024,-1.61869 3.50883,-2.53886 z"
         id="path36493" />
      <path
         style="color:#000000;fill:#22cfd5;fill-opacity:1;stroke:#22cfd5;stroke-width:0.529167;stroke-miterlimit:4;stroke-dasharray:none;stroke-opacity:1"
         d="m -459.01397,-820.27613 -0.51211,0.013 c 0.0503,0.83873 0.11702,1.67426 0.19998,2.50632 l 0.48421,0.013 c -0.0734,-0.84523 -0.13159,-1.68933 -0.17208,-2.53214 z"
         id="path36487" />
      <path
         style="color:#000000;fill:#22cfd5;fill-opacity:1;stroke:#22cfd5;stroke-width:0.529167;stroke-miterlimit:4;stroke-dasharray:none;stroke-opacity:1"
         d="m -432.3355,-820.97326 -0.50591,0.013 c 0.10577,1.31831 0.28844,2.62165 0.52969,3.90932 l 0.43614,0.0114 c -0.2185,-1.31342 -0.37491,-2.62588 -0.45992,-3.93361 z"
         id="path36483" />
      <path
         style="color:#000000;fill:#22cfd5;fill-opacity:1;stroke:#22cfd5;stroke-width:0.529167;stroke-miterlimit:4;stroke-dasharray:none;stroke-opacity:1"
         d="m -405.92212,-821.66366 -0.49144,0.013 c 0.0559,0.32396 0.12145,0.649 0.20153,0.97565 0.21193,0.86445 0.55791,1.72556 0.99529,2.5554 0.18232,0.42818 0.38169,0.85387 0.61288,1.27485 0.0981,0.17867 0.2148,0.3516 0.32505,0.5266 l 0.56379,0.0151 c -0.48657,-0.61767 -0.9172,-1.27797 -1.27641,-1.96268 -0.47199,-1.11789 -0.77384,-2.25634 -0.93069,-3.39773 z"
         id="path36479" />
      <path
         style="color:#000000;fill:#22cfd5;fill-opacity:1;stroke:#22cfd5;stroke-width:0.529167;stroke-miterlimit:4;stroke-dasharray:none;stroke-opacity:1"
         d="m -382.91474,-840.50385 -0.72864,1.1896 c 1.5969,0.39711 3.12909,0.98052 4.57543,1.73117 l 0.7705,-1.41904 c -1.48464,-0.66403 -3.03231,-1.16859 -4.61729,-1.50173 z"
         id="path36475" />
      <path
         style="color:#000000;fill:#22cfd5;fill-opacity:1;stroke:#22cfd5;stroke-width:0.529167;stroke-miterlimit:4;stroke-dasharray:none;stroke-opacity:1"
         d="m -368.69752,-863.70656 -0.80822,1.31879 c 1.04827,0.46736 2.07767,0.97136 3.08663,1.51101 l 0.77825,-1.43299 c -1.00347,-0.49913 -2.02282,-0.96528 -3.05666,-1.39681 z"
         id="path36471" />
      <path
         style="color:#000000;fill:#22cfd5;fill-opacity:1;stroke:#22cfd5;stroke-width:0.529167;stroke-miterlimit:4;stroke-dasharray:none;stroke-opacity:1"
         d="m -354.68184,-886.58061 -0.81907,1.33583 c 0.60523,0.30654 1.20702,0.61907 1.80299,0.94154 l 0.76481,-1.40819 c -0.57887,-0.29768 -1.16266,-0.58597 -1.74873,-0.86918 z"
         id="path36464" />
    </g>
  </g>
</svg>
