<?xml version="1.0" encoding="UTF-8" standalone="no"?>
<!-- Created with Inkscape (http://www.inkscape.org/) -->

<svg
   width="179.60551mm"
   height="88.173447mm"
   viewBox="0 0 179.60551 88.173447"
   version="1.1"
   id="svg63099"
   inkscape:version="1.1.2 (b8e25be833, 2022-02-05)"
   sodipodi:docname="rising_logo.svg"
   xmlns:inkscape="http://www.inkscape.org/namespaces/inkscape"
   xmlns:sodipodi="http://sodipodi.sourceforge.net/DTD/sodipodi-0.dtd"
   xmlns="http://www.w3.org/2000/svg"
   xmlns:svg="http://www.w3.org/2000/svg">
  <sodipodi:namedview
     id="namedview63101"
     pagecolor="#ffffff"
     bordercolor="#666666"
     borderopacity="1.0"
     inkscape:pageshadow="2"
     inkscape:pageopacity="0.0"
     inkscape:pagecheckerboard="0"
     inkscape:document-units="mm"
     showgrid="false"
     fit-margin-top="0"
     fit-margin-left="0"
     fit-margin-right="0"
     fit-margin-bottom="0"
     inkscape:zoom="0.733172"
     inkscape:cx="230.50526"
     inkscape:cy="252.32824"
     inkscape:window-width="1920"
     inkscape:window-height="1009"
     inkscape:window-x="-8"
     inkscape:window-y="-8"
     inkscape:window-maximized="1"
     inkscape:current-layer="layer1" />
  <defs
     id="defs63096" />
  <g
     inkscape:label="Layer 1"
     inkscape:groupmode="layer"
     id="layer1"
     transform="translate(-44.08181,-81.858589)">
    <g
       id="g55461"
       transform="translate(-336.09977,1010.8494)"
       inkscape:export-filename="C:\Users\kelly\OneDrive\Documents\BlueDwarf\imagery\new logo\rising_logo.png"
       inkscape:export-xdpi="120.12471"
       inkscape:export-ydpi="120.12471">
      <g
         id="g55457"
         transform="matrix(0.73732515,0,0,0.73246554,-664.81812,-105.97583)">
        <path
           id="path55433"
           style="color:#000000;fill:#22cfd5;fill-opacity:1;stroke:#22cfd5;stroke-width:2;stroke-miterlimit:4;stroke-dasharray:none;stroke-opacity:1"
           d="m 5839.1895,-4058.4688 c -52.5539,-0.7407 -105.157,12.3398 -151.2989,39.9376 v -0.01 c -1.8021,1.0798 -3.598,2.1803 -5.3808,3.3028 -16.2992,10.2644 -31.7385,22.3825 -46.0274,36.3906 -33.3959,32.739 -56.7536,72.9488 -69.5722,115.8809 -5.9002,18.4264 -9.7663,37.4541 -11.6153,56.7011 h 1.9961 c 1.5627,-19.0874 5.0919,-38.0503 10.6094,-56.5058 20.3029,-63.3196 63.7704,-119.6058 124.6016,-153.9258 136.696,-77.122 312.083,-23.2158 390.7304,109.5137 l 3.7559,6.5429 0.3847,-0.2187 0.4922,-0.2715 c 0,0 0,0 0,0 l -0.209,-0.3633 -38.5976,-67.2324 -0.4219,0.2422 0.3477,-0.3379 c -56.2761,-57.9605 -132.9816,-88.5658 -209.791,-89.6485 z m -1.7071,100.5645 c -49.1456,-0.5818 -98.1594,17.3279 -134.4512,55.3262 -18.3102,19.1705 -31.4246,42.1406 -39.1152,66.5722 -3.3448,9.6834 -5.7607,19.6502 -7.3008,29.7422 h 1.8203 c 1.3075,-9.9602 3.413,-19.8416 6.4512,-29.4843 12.6335,-36.5258 37.7395,-69.1215 72.1895,-90.0801 89.2788,-54.3149 206.8117,-18.3259 259.041,69.748 9.4724,15.9734 16.4331,32.7158 21.0605,49.8164 h 10.4141 c -8.8942,-35.4216 -26.982,-68.7738 -54.8711,-96.0195 -36.8152,-35.9658 -86.0927,-55.0393 -135.2383,-55.6211 z m -2.584,100.0859 c -24.8595,0.064 -49.2453,10.0836 -65.3476,31.5293 -4.5186,6.0185 -7.996,12.8422 -10.3594,20.0254 h 1.0996 c 4.5235,-11.157 11.9244,-21.3006 21.3848,-28.7187 39.2288,-30.7586 96.1978,-15.3783 123.582,23.4961 1.2107,1.7186 2.3491,3.462 3.4356,5.2226 h 11.9511 c -5.9668,-10.9256 -13.983,-20.9518 -24.2031,-29.4785 -17.3055,-14.4381 -39.6081,-22.1326 -61.543,-22.0762 z"
           transform="scale(0.26458333)" />
        <path
           id="path55435"
           style="fill:#02597f;fill-opacity:1;stroke-width:0.0778646"
           inkscape:transform-center-x="2.5550374e-06"
           d="m 5816.7988,-4198.8809 -10.2597,392.6172 h 20.5195 z m -375.8047,216.9707 286.6661,175.6465 h 36.791 z m 751.6094,0 -323.457,175.6465 h 36.793 z"
           transform="scale(0.26458333)" />
        <path
           id="path55437"
           style="fill:#02597f;stroke-width:0.0152685"
           inkscape:transform-center-x="4.4118365"
           inkscape:transform-center-y="9.327838"
           d="m 5791.2051,-3942.6699 -11.7031,113.9121 -103.8223,-47.2129 64.1348,44.3887 36.3476,25.1562 h 26.2129 l -4.7969,-58.5058 z"
           transform="scale(0.26458333)" />
        <path
           id="path55439"
           style="fill:#02597f;stroke-width:0.0152685"
           inkscape:transform-center-x="4.4118365"
           inkscape:transform-center-y="9.327838"
           d="m 5842.3945,-3942.6699 -6.373,77.7383 -4.7969,58.5058 h 26.2129 l 36.3477,-25.1562 64.1347,-44.3887 -104.5,46.8203 z"
           transform="scale(0.26458333)" />
        <path
           id="path55441"
           style="fill:#02597f;stroke-width:0.0152685"
           inkscape:transform-center-x="4.4118365"
           inkscape:transform-center-y="9.327838"
           d="m 5983.5156,-3831.6387 -53.6484,25.375 h 18.1367 z"
           transform="scale(0.26458333)" />
        <path
           id="path55443"
           style="fill:#02597f;stroke-width:0.0152685"
           inkscape:transform-center-x="4.4118365"
           inkscape:transform-center-y="-9.327838"
           d="m 5650.084,-3831.6387 35.5117,25.375 h 18.1367 z"
           transform="scale(0.26458333)" />
        <path
           id="path55445"
           style="fill:#02597f;stroke-width:0.00403979"
           inkscape:transform-center-x="-9.327838"
           inkscape:transform-center-y="-4.411838"
           d="m 1626.0722,-1025.8978 12.3877,-27.6492 -30.0351,-2.9169 20.5681,-1.6863 20.5682,-1.6863 -11.7445,16.9693 z"
           sodipodi:nodetypes="ccccccc" />
        <path
           id="path55447"
           style="fill:#02597f;stroke-width:0.00403979"
           inkscape:transform-center-x="9.327838"
           inkscape:transform-center-y="-4.411838"
           d="m 1452.0881,-1025.8978 -12.3878,-27.6492 30.0351,-2.9169 -20.5681,-1.6863 -20.5682,-1.6864 11.7445,16.9694 z"
           sodipodi:nodetypes="ccccccc" />
        <path
           id="path55449"
           style="fill:#02597f;stroke-width:0.00403979"
           inkscape:transform-center-x="9.327838"
           inkscape:transform-center-y="-4.411838"
           d="m 1521.4328,-1086.3114 17.751,-24.5527 17.5437,24.5527 -8.8237,-18.6557 -8.8237,-18.6557 -8.8236,18.6557 z"
           sodipodi:nodetypes="ccccccc" />
        <path
           style="color:#000000;fill:#22cfd5;fill-opacity:1;stroke:#22cfd5;stroke-width:0.529167;stroke-miterlimit:4;stroke-dasharray:none;stroke-opacity:1"
           d="m 1536.6402,-1019.5774 -0.036,1.3945 c 1.5815,-0.4545 3.2001,-0.7153 4.828,-0.7884 l -0.042,-1.6142 c -1.6178,0.1672 -3.2104,0.5041 -4.7496,1.0081 z"
           id="path55451" />
        <path
           style="color:#000000;fill:#22cfd5;fill-opacity:1;stroke:#22cfd5;stroke-width:0.529167;stroke-miterlimit:4;stroke-dasharray:none;stroke-opacity:1"
           d="m 1537.3513,-1046.7801 -0.041,1.5462 c 1.1415,-0.1194 2.285,-0.1976 3.4286,-0.2348 l -0.043,-1.6301 c -1.1186,0.07 -2.2345,0.1755 -3.3456,0.3187 z"
           id="path55453" />
        <path
           style="color:#000000;fill:#22cfd5;fill-opacity:1;stroke:#22cfd5;stroke-width:0.529167;stroke-miterlimit:4;stroke-dasharray:none;stroke-opacity:1"
           d="m 1538.0522,-1073.5975 -0.041,1.5664 c 0.6774,-0.037 1.3549,-0.067 2.0322,-0.086 l -0.042,-1.6019 c -0.6502,0.032 -1.2999,0.074 -1.9491,0.1216 z"
           id="path55455" />
      </g>
      <rect
         style="fill:#02597f;fill-opacity:1;fill-rule:evenodd;stroke-width:0.296075"
         id="rect55459"
         width="179.60551"
         height="3.0805218"
         x="380.18158"
         y="-843.89789"
         inkscape:export-filename="E:\Kelly\bluedwarf\art\banner_low.png"
         inkscape:export-xdpi="90"
         inkscape:export-ydpi="90" />
    </g>
  </g>
</svg>
