<?xml version="1.0" encoding="UTF-8" standalone="no"?>
<!-- Created with Inkscape (http://www.inkscape.org/) -->

<svg
   width="48.283108mm"
   height="65.42318mm"
   viewBox="0 0 48.283108 65.42318"
   version="1.1"
   id="svg120178"
   inkscape:version="1.1.2 (b8e25be833, 2022-02-05)"
   sodipodi:docname="enterprise.svg"
   xmlns:inkscape="http://www.inkscape.org/namespaces/inkscape"
   xmlns:sodipodi="http://sodipodi.sourceforge.net/DTD/sodipodi-0.dtd"
   xmlns="http://www.w3.org/2000/svg"
   xmlns:svg="http://www.w3.org/2000/svg">
  <sodipodi:namedview
     id="namedview120180"
     pagecolor="#ffffff"
     bordercolor="#666666"
     borderopacity="1.0"
     inkscape:pageshadow="2"
     inkscape:pageopacity="0.0"
     inkscape:pagecheckerboard="0"
     inkscape:document-units="mm"
     showgrid="false"
     fit-margin-top="0"
     fit-margin-left="0"
     fit-margin-right="0"
     fit-margin-bottom="0"
     inkscape:zoom="2.0737236"
     inkscape:cx="-57.384698"
     inkscape:cy="189.03195"
     inkscape:window-width="2560"
     inkscape:window-height="1369"
     inkscape:window-x="-3848"
     inkscape:window-y="-1083"
     inkscape:window-maximized="1"
     inkscape:current-layer="layer1" />
  <defs
     id="defs120175">
    <filter
       style="color-interpolation-filters:sRGB"
       inkscape:label="Drop Shadow"
       id="filter29339"
       x="-0.12474701"
       y="-0.085737595"
       width="1.2941824"
       height="1.2052387">
      <feFlood
         flood-opacity="0.498039"
         flood-color="rgb(0,0,0)"
         result="flood"
         id="feFlood29329" />
      <feComposite
         in="flood"
         in2="SourceGraphic"
         operator="in"
         result="composite1"
         id="feComposite29331" />
      <feGaussianBlur
         in="composite1"
         stdDeviation="49.1018"
         result="blur"
         id="feGaussianBlur29333" />
      <feOffset
         dx="42.2156"
         dy="46.4072"
         result="offset"
         id="feOffset29335" />
      <feComposite
         in="SourceGraphic"
         in2="offset"
         operator="over"
         result="composite2"
         id="feComposite29337" />
    </filter>
  </defs>
  <g
     inkscape:label="Layer 1"
     inkscape:groupmode="layer"
     id="layer1"
     transform="translate(-120.20839,-98.646855)">
    <path
       id="path38425"
       style="fill:#9309ac;fill-opacity:1;stroke-width:77.029;stroke-miterlimit:4;stroke-dasharray:none;filter:url(#filter29339)"
       d="m 4406.1309,-2693.4707 c -120.2971,0 -225.7977,64.4617 -283.8418,160.6445 -39.8603,54.6976 -63.459,121.9686 -63.459,194.6797 v 0.8594 c 0,108.8307 53.8334,209.719 141.0058,271.0644 14.7289,11.7584 30.55,22.3216 47.3516,31.5293 2.6682,40.2734 4.8801,83.9682 3.0781,127.8125 -2.1117,51.4662 -24.7711,119.3464 -37.3789,153.5977 l -79.6933,39.4941 v -265.6386 c 0,-4.6212 -0.7149,-9.0913 -2,-13.3301 v -10.6699 c 0,-23.1908 -17.3478,-42.8897 -40.3496,-45.8145 -13.3868,-1.6756 -26.8091,2.5158 -36.8204,11.5703 -6.5803,5.9555 -11.1808,13.6004 -13.4882,21.9649 -0.8474,0.6646 -1.7087,1.309 -2.5137,2.0371 -10.0112,9.0606 -15.5481,21.9955 -15.1777,35.498 l 0.791,29.1778 -2.8496,3.9336 c -1.029,1.4148 -1.7113,3.038 -2.0547,4.7382 l -13.9473,19.2618 c -1.4623,2.0107 -2.2653,4.4299 -2.3144,6.916 l -10.1583,535.1914 c -0.079,3.8448 1.6627,7.4874 4.6973,9.8515 l 45.6992,35.543 c 0.7341,0.571 1.5413,1.0165 2.375,1.4024 l 13.627,10.5976 c 2.1384,1.6635 4.771,2.5645 7.4824,2.5645 H 4119 c 6.7268,0 12.1875,-5.4587 12.1875,-12.1856 v -5.3398 c 1.2565,-1.9167 2,-4.1988 2,-6.6602 v -105.082 l 93.8223,-92.3848 c 0.8103,0.8409 1.7546,1.573 2.8027,2.1641 3.546,1.9986 7.8526,2.0884 11.4844,0.2422 l 66.0078,-33.5118 c 1.4748,-0.7494 2.7855,-1.7909 3.8457,-3.0644 l 25.3906,-30.4668 c 1.6328,-1.9681 2.6096,-4.3866 2.791,-6.9336 l 0.4981,-7.0039 c 0.8444,-1.5356 1.3761,-3.2296 1.5019,-4.9961 l 0.5489,-7.7012 35.5527,-18.7617 56.7617,81.8809 c 2.2791,3.2842 6.0204,5.2402 10.0176,5.2402 h 1.2988 l 4.6856,6.7598 c 2.279,3.2842 6.0203,5.2402 10.0175,5.2402 h 22.8497 c 3.9972,0 7.7369,-1.956 10.0156,-5.2402 l 61.9511,-89.3633 c 1.4075,-2.0413 2.168,-4.4673 2.168,-6.9473 v -2.1328 l 29.6524,15.6484 1.0937,15.377 c 0.1765,2.547 1.1579,4.9716 2.791,6.9336 l 25.3907,30.4668 c 1.0605,1.2735 2.3633,2.315 3.8437,3.0644 l 8.1641,4.1446 3.9922,4.791 c 1.0605,1.2735 2.3652,2.315 3.8457,3.0644 l 66.0078,33.5118 c 3.6253,1.8462 7.94,1.7564 11.4863,-0.2422 0.2496,-0.1393 0.472,-0.3133 0.709,-0.4688 l 81.914,80.6582 v 115.1133 c 0,6.7269 5.4588,12.1856 12.1856,12.1856 h 3.834 c 0.1018,6.6392 5.5047,12 12.1679,12 h 52.8086 c 2.7118,0 5.3454,-0.9008 7.4903,-2.5704 l 45.6992,-35.5429 c 3.0281,-2.3642 4.7691,-6.0067 4.6973,-9.8516 l -0.096,-5.0683 c 1.3518,-2.0384 2.1425,-4.422 2.0957,-6.9317 l -10.1582,-535.1914 c -0.041,-2.0651 -0.629,-4.0686 -1.6563,-5.8457 l -0.3437,-18.1543 c -0.049,-2.486 -0.8522,-4.9052 -2.3145,-6.916 l -16.3457,-22.5762 0.2852,-10.5351 c 0.1434,-5.293 -0.6486,-10.4887 -2.2325,-15.4082 l 0.2325,-8.5918 c 0.3658,-13.5026 -5.1666,-26.4394 -15.1778,-35.5 -10.0108,-9.0545 -23.4355,-13.2399 -36.8222,-11.5703 -18.7918,2.3943 -33.7959,15.9809 -38.6641,33.5175 -10.8156,8.5185 -17.6856,21.7109 -17.6856,36.2969 v 258.6992 l -74.1601,-36.7519 c -5.5153,-13.7718 -34.9926,-89.6062 -42.9981,-152.2403 -1.4958,-40.2062 0.3171,-80.1476 2.6993,-117.4687 99.2191,-48.1737 167.4626,-142.601 183.2929,-250.0879 3.6288,-19.5904 5.5293,-39.6589 5.5293,-60.0098 v -0.8593 c 0,-13.128 -0.8551,-26.0534 -2.3476,-38.7872 -7.7644,-175.8501 -153.2405,-316.5312 -330.9707,-316.5312 z m 6.3203,60.5742 h 107.25 v 578.4453 h -107.25 z m 149.625,0.8496 c 56.0063,4.5249 107.7775,24.1742 151.3008,54.8145 69.8919,56.3082 114.7089,142.5478 114.7089,239.0801 v 0.8593 c 0,56.6335 -15.7247,110.9539 -43.8203,157.7637 -25.787,35.0734 -59.0662,64.7715 -98.1289,86.5039 0.3609,-5.8319 0.7143,-11.6309 1.002,-17.2773 0.9071,-17.9384 1.2734,-39.2468 1.2734,-61.9805 0.012,-52.0055 -2.0295,-111.8292 -4.3203,-156.1816 -0.4507,-8.7249 -1.2164,-17.8223 -2.1973,-27.0625 -3.4708,-59.2107 -19.6312,-133.4284 -35.7578,-163.5313 -15.7326,-29.3632 -48.0024,-65.7943 -49.3672,-67.3359 -3.3573,-3.7778 -8.7128,-5.0763 -13.4414,-3.291 -4.7282,1.7975 -7.8554,6.3313 -7.8554,11.3886 v 12.4668 c -2.6024,-0.8558 -5.4699,-0.866 -8.1465,0.1446 -2.1304,0.8099 -3.9096,2.1956 -5.25,3.914 z m -191.9981,1.0762 v 574.4609 c -0.091,-0.011 -0.1823,-0.02 -0.2734,-0.031 v -497.7559 c 0,-2.4221 -0.7333,-4.7136 -2,-6.6523 v -17.3477 c 0,-5.0573 -3.1253,-9.5911 -7.8535,-11.3886 -4.7467,-1.7914 -10.0841,-0.4929 -13.4414,3.291 -1.2847,1.4443 -29.6854,33.5163 -46.2032,61.7011 -7.0465,9.6746 -14.0037,20.002 -19.166,29.6348 -16.4027,30.6245 -32.8657,106.9108 -35.9551,166.5938 -2.2911,44.3524 -4.3203,104.1761 -4.3203,156.1816 -0.012,22.7398 0.3656,44.0421 1.2735,61.9805 0.1453,2.8528 0.3403,5.8299 0.5058,8.7285 -77.8603,-49.1081 -129.9057,-131.0878 -141.1328,-222.5078 -0.19,-4.3903 -0.3203,-8.7901 -0.3203,-13.211 v -0.8593 c 0,-14.8012 1.0803,-29.3521 3.1152,-43.5997 24.1116,-131.2034 131.8658,-233.4824 265.7715,-249.2187 z m 231.7617,137.6328 c 2.4826,3.884 4.8344,7.7306 6.8047,11.4043 14.7515,27.523 30.2154,100.5868 33.0977,156.3457 2.2605,43.603 4.2591,102.2307 4.2969,153.3223 -0.01,21.6918 -0.3785,41.9774 -1.25,59.1054 -0.8225,16.1775 -2.0103,33.1521 -3.2715,51.127 -3.3268,47.5697 -7.1059,101.4824 -4.8574,156.1445 2.8883,70.2608 40.1426,165.382 46.705,181.6387 v 68.7012 c 0,14.2834 -0.5071,29.541 -1.1464,43.9472 l -32.9805,-16.7402 -20.9571,-25.1445 -26.4414,-370.7188 z m -274.4218,8.9492 v 460.1895 l -27.75,389.0898 -5.6407,6.7676 -46.6191,23.6641 c -0.8025,-16.3191 -1.5098,-34.037 -1.5098,-50.8711 v -61.7832 c 8.1512,-20.6871 32.3138,-85.2201 41.3926,-144.5645 2.7745,-15.101 4.7389,-30.0396 5.3125,-43.9922 2.2485,-54.6621 -1.5287,-108.5748 -4.8555,-156.1445 -1.2612,-17.9811 -2.451,-34.9556 -3.2734,-51.127 -0.8712,-17.1524 -1.248,-37.4612 -1.248,-59.1836 0.024,-51.061 2.0404,-109.6594 4.2949,-153.2441 0.9445,-18.2737 3.3323,-38.3762 6.5117,-58.1543 6.5033,-36.1051 15.6541,-69.5228 24.5859,-86.1914 2.4793,-4.6313 5.549,-9.5323 8.7989,-14.4551 z m 40.4433,488.1621 c 12.7686,1.4833 25.5872,2.2461 38.2696,2.2461 h 131.0039 c 2.6993,0 5.3981,-0.037 8.1035,-0.1035 h 2.6504 c 0.6398,0 1.2612,-0.043 1.8769,-0.1406 3.9055,-0.1523 7.8206,-0.4029 11.7364,-0.6934 l 11.8632,166.3575 -14.166,-7.1661 v -1.0097 c 0,-2.4279 -0.7263,-4.732 -2,-6.6758 v -17.3242 c 0,-4.9355 -2.9735,-9.3768 -7.5312,-11.2657 l -46.7168,-19.2988 c -1.4805,-0.6033 -3.0579,-0.9199 -4.6543,-0.9199 h -53.3164 c -1.6026,0 -3.1796,0.3106 -4.6543,0.9199 l -46.7168,19.2988 c -4.5578,1.8889 -7.5313,6.3302 -7.5313,11.2657 v 9.2363 l -8.4707,3.498 c -4.5577,1.8889 -7.5293,6.3302 -7.5293,11.2657 v 8.0879 l -14.6972,7.4355 z m -282.4785,6.9864 c 0.787,0.015 1.5762,0.073 2.3652,0.1757 0.2736,0.035 0.5229,0.133 0.793,0.1778 1.402,2.8839 2.2598,6.0686 2.2598,9.4531 v 600.0664 h -20.4356 l -35.164,-27.3476 9.3691,-493.6602 17.2637,-23.8398 c 1.5719,-2.1753 2.3804,-4.8015 2.3086,-7.4825 l -0.1309,-4.8125 c 1.4411,-2.118 2.1996,-4.622 2.1309,-7.1875 l -0.8906,-32.955 c 1.215,-2.6015 2.9248,-4.9767 5.1074,-6.9512 4.1375,-3.7427 9.5146,-5.7456 15.0234,-5.6367 z m 772.4961,0 c 1.3462,-0.027 2.6785,0.096 3.9922,0.3164 1.5037,3.1055 2.2938,6.547 2.1953,10.082 l -0.9512,35.1445 c -0.079,2.6871 0.7367,5.3133 2.3086,7.4825 l 19.084,26.3535 9.752,513.8808 -21.3594,16.6133 h -34.4434 v -596.9902 c 3.0437,-6.7183 9.3425,-11.7252 17.0547,-12.7071 0.7898,-0.1028 1.5798,-0.1602 2.3672,-0.1757 z m -410.4785,157.4004 h 48.4766 l 20.9433,8.6523 v 153.3555 l -40.1426,57.9062 h -10.0839 l -54.1368,-78.1015 v -127.377 z m 111.793,59.4257 18.7382,9.4805 4.0821,57.2383 -22.8203,-12.0449 z m -189.1153,7.0821 v 54.9804 l -23.3691,12.334 4.1074,-57.5683 z m 355.6621,72.9316 70.3496,34.8652 v 125.2813 l -71.9062,-70.8047 c 0.8219,-16.6529 1.5566,-34.9187 1.5566,-52.4902 z m -522.2148,6.9395 v 29.9121 c 0,22.3724 1.1459,46.7117 2.2226,65.6191 l -72.5722,71.459 v -132.127 z"
       transform="matrix(0.0394931,0,0,0.0394931,-32.806193,209.6744)" />
  </g>
</svg>
