<?xml version="1.0" encoding="UTF-8" standalone="no"?>
<!-- Created with Inkscape (http://www.inkscape.org/) -->

<svg
   width="56.267498mm"
   height="49.373875mm"
   viewBox="0 0 56.267498 49.373874"
   version="1.1"
   id="svg70269"
   inkscape:version="1.1.1 (3bf5ae0d25, 2021-09-20)"
   sodipodi:docname="gears.svg"
   xmlns:inkscape="http://www.inkscape.org/namespaces/inkscape"
   xmlns:sodipodi="http://sodipodi.sourceforge.net/DTD/sodipodi-0.dtd"
   xmlns="http://www.w3.org/2000/svg"
   xmlns:svg="http://www.w3.org/2000/svg">
  <sodipodi:namedview
     id="namedview70271"
     pagecolor="#ffffff"
     bordercolor="#666666"
     borderopacity="1.0"
     inkscape:pageshadow="2"
     inkscape:pageopacity="0.0"
     inkscape:pagecheckerboard="0"
     inkscape:document-units="mm"
     showgrid="false"
     fit-margin-top="0"
     fit-margin-left="0"
     fit-margin-right="0"
     fit-margin-bottom="0"
     inkscape:zoom="0.64052329"
     inkscape:cx="316.92837"
     inkscape:cy="558.91801"
     inkscape:window-width="3840"
     inkscape:window-height="2066"
     inkscape:window-x="-11"
     inkscape:window-y="-11"
     inkscape:window-maximized="1"
     inkscape:current-layer="layer1" />
  <defs
     id="defs70266">
    <filter
       style="color-interpolation-filters:sRGB"
       inkscape:label="Drop Shadow"
       id="filter18029"
       x="-0.011629544"
       y="-0.015065292"
       width="1.0375249"
       height="1.0486399">
      <feFlood
         flood-opacity="0.498039"
         flood-color="rgb(0,0,0)"
         result="flood"
         id="feFlood18019" />
      <feComposite
         in="flood"
         in2="SourceGraphic"
         operator="in"
         result="composite1"
         id="feComposite18021" />
      <feGaussianBlur
         in="composite1"
         stdDeviation="2"
         result="blur"
         id="feGaussianBlur18023" />
      <feOffset
         dx="6.5"
         dy="6.5"
         result="offset"
         id="feOffset18025" />
      <feComposite
         in="SourceGraphic"
         in2="offset"
         operator="over"
         result="composite2"
         id="feComposite18027" />
    </filter>
    <filter
       style="color-interpolation-filters:sRGB"
       inkscape:label="Drop Shadow"
       id="filter18053"
       x="-0.063403331"
       y="-0.070848711"
       width="1.2126653"
       height="1.2376384">
      <feFlood
         flood-opacity="0.498039"
         flood-color="rgb(0,0,0)"
         result="flood"
         id="feFlood18043" />
      <feComposite
         in="flood"
         in2="SourceGraphic"
         operator="in"
         result="composite1"
         id="feComposite18045" />
      <feGaussianBlur
         in="composite1"
         stdDeviation="2"
         result="blur"
         id="feGaussianBlur18047" />
      <feOffset
         dx="6.5"
         dy="6.5"
         result="offset"
         id="feOffset18049" />
      <feComposite
         in="SourceGraphic"
         in2="offset"
         operator="over"
         result="composite2"
         id="feComposite18051" />
    </filter>
    <clipPath
       clipPathUnits="userSpaceOnUse"
       id="clipPath3831">
      <rect
         style="fill:#000000;fill-opacity:1;fill-rule:evenodd;stroke:none;stroke-width:137.628;stroke-miterlimit:4;stroke-dasharray:none;stroke-opacity:1"
         id="rect3833"
         width="491.92999"
         height="352.93591"
         x="-557.09143"
         y="404.46649" />
    </clipPath>
    <filter
       style="color-interpolation-filters:sRGB"
       inkscape:label="Drop Shadow"
       id="filter18041"
       x="-0.012784809"
       y="0.025994444"
       width="1.0428824"
       height="0.99872231">
      <feFlood
         flood-opacity="0.498039"
         flood-color="rgb(0,0,0)"
         result="flood"
         id="feFlood18031" />
      <feComposite
         in="flood"
         in2="SourceGraphic"
         operator="in"
         result="composite1"
         id="feComposite18033" />
      <feGaussianBlur
         in="composite1"
         stdDeviation="2"
         result="blur"
         id="feGaussianBlur18035" />
      <feOffset
         dx="6.5"
         dy="6.5"
         result="offset"
         id="feOffset18037" />
      <feComposite
         in="SourceGraphic"
         in2="offset"
         operator="over"
         result="composite2"
         id="feComposite18039" />
    </filter>
    <clipPath
       clipPathUnits="userSpaceOnUse"
       id="clipPath3257">
      <path
         id="path3259"
         style="fill:#000000;fill-opacity:1;fill-rule:evenodd;stroke:none;stroke-width:137.628;stroke-miterlimit:4;stroke-dasharray:none;stroke-opacity:1"
         d="M -732.27306,418.23774 V 753.54929 H -390.2074 V 463.24046 l -78.63818,123.17563 z" />
    </clipPath>
    <filter
       style="color-interpolation-filters:sRGB"
       inkscape:label="Drop Shadow"
       id="filter18065"
       x="-0.02399952"
       y="-0.027661242"
       width="1.0804984"
       height="1.0927804">
      <feFlood
         flood-opacity="0.498039"
         flood-color="rgb(0,0,0)"
         result="flood"
         id="feFlood18055" />
      <feComposite
         in="flood"
         in2="SourceGraphic"
         operator="in"
         result="composite1"
         id="feComposite18057" />
      <feGaussianBlur
         in="composite1"
         stdDeviation="2"
         result="blur"
         id="feGaussianBlur18059" />
      <feOffset
         dx="6.5"
         dy="6.5"
         result="offset"
         id="feOffset18061" />
      <feComposite
         in="SourceGraphic"
         in2="offset"
         operator="over"
         result="composite2"
         id="feComposite18063" />
    </filter>
  </defs>
  <g
     inkscape:label="Layer 1"
     inkscape:groupmode="layer"
     id="layer1"
     transform="translate(20.268423,-0.72370154)">
    <g
       id="g765807"
       transform="matrix(0.2603723,0,0,0.2603723,-259.6016,-208.72915)"
       style="fill:#9510ac;fill-opacity:1;filter:url(#filter18065)"
       inkscape:export-filename="C:\Users\kelly\OneDrive\Documents\BlueDwarf\imagery\web svgs\gears.png"
       inkscape:export-xdpi="90"
       inkscape:export-ydpi="90">
      <path
         d="m 1049.078,903.431 h -3.447 c -3.104,0 -5.875,-1.963 -6.904,-4.891 -0.626,-1.793 -1.354,-3.536 -2.176,-5.227 -1.361,-2.806 -0.799,-6.167 1.404,-8.369 l 2.381,-2.382 c 4.029,-4.028 4.029,-10.556 0,-14.583 l -1.717,-1.717 c -4.025,-4.024 -10.557,-4.028 -14.58,0 l -2.436,2.433 c -2.193,2.196 -5.538,2.769 -8.336,1.425 -1.696,-0.811 -3.442,-1.532 -5.236,-2.155 -2.948,-1.017 -4.928,-3.795 -4.928,-6.91 v -3.37 c 0,-5.693 -4.618,-10.31 -10.309,-10.31 h -2.43 c -5.695,0 -10.312,4.616 -10.312,10.31 v 3.444 c 0,3.107 -1.962,5.877 -4.892,6.906 -1.792,0.627 -3.534,1.354 -5.224,2.176 -2.803,1.361 -6.166,0.796 -8.371,-1.406 l -2.377,-2.382 c -4.03,-4.028 -10.558,-4.028 -14.584,0 l -1.719,1.717 c -4.026,4.028 -4.028,10.555 0,14.583 l 2.434,2.432 c 2.193,2.197 2.765,5.54 1.421,8.341 -0.812,1.691 -1.532,3.44 -2.15,5.234 -1.021,2.945 -3.798,4.926 -6.915,4.926 h -3.367 c -5.695,0 -10.312,4.617 -10.312,10.313 v 2.429 c 0,5.693 4.617,10.31 10.312,10.31 h 3.441 c 3.106,0 5.876,1.963 6.903,4.893 0.63,1.791 1.358,3.537 2.18,5.227 1.361,2.804 0.795,6.164 -1.408,8.367 l -2.379,2.383 c -4.029,4.027 -4.027,10.555 0,14.582 l 1.718,1.718 c 4.025,4.023 10.553,4.026 14.58,-0.003 l 2.431,-2.432 c 2.195,-2.194 5.54,-2.768 8.341,-1.424 1.694,0.813 3.441,1.533 5.236,2.155 2.946,1.018 4.927,3.795 4.927,6.913 v 3.364 c -0.004,5.699 4.614,10.313 10.311,10.313 h 2.427 c 5.696,0 10.314,-4.614 10.311,-10.309 v -3.445 c 0,-3.104 1.962,-5.875 4.892,-6.905 1.792,-0.628 3.537,-1.354 5.229,-2.175 2.801,-1.362 6.165,-0.798 8.368,1.404 l 2.379,2.38 c 4.027,4.029 10.555,4.025 14.583,0.002 l 1.717,-1.718 c 4.027,-4.026 4.03,-10.557 0,-14.581 l -2.432,-2.433 c -2.197,-2.193 -2.768,-5.54 -1.426,-8.337 0.814,-1.696 1.533,-3.445 2.154,-5.24 1.021,-2.947 3.795,-4.926 6.914,-4.926 h 3.367 c 5.695,0.002 10.31,-4.616 10.31,-10.312 v -2.429 c 10e-4,-5.691 -4.613,-10.313 -10.306,-10.309 z m -57.384,36.716 c -13.852,0 -25.081,-11.227 -25.081,-25.078 0,-13.853 11.229,-25.08 25.081,-25.08 13.85,0 25.079,11.228 25.079,25.08 -10e-4,13.852 -11.229,25.078 -25.079,25.078 z"
         id="path765803"
         style="fill:#9510ac;fill-opacity:1" />
      <path
         d="m 1117.307,845.487 h -1.727 c -2.557,0 -4.847,-1.583 -5.752,-3.974 -0.229,-0.609 -0.479,-1.212 -0.746,-1.804 -1.053,-2.329 -0.554,-5.07 1.256,-6.876 l 1.219,-1.221 c 2.613,-2.611 2.613,-6.853 0,-9.466 l -0.473,-0.473 c -2.613,-2.612 -6.852,-2.612 -9.465,0 l -1.219,1.221 c -1.809,1.809 -4.547,2.308 -6.877,1.258 -0.593,-0.268 -1.192,-0.516 -1.805,-0.747 -2.389,-0.903 -3.975,-3.196 -3.975,-5.748 v -1.729 c 0,-3.697 -2.996,-6.692 -6.689,-6.692 h -0.668 c -3.698,0 -6.696,2.995 -6.696,6.692 v 1.724 c 0,2.557 -1.581,4.85 -3.972,5.753 -0.609,0.231 -1.215,0.479 -1.805,0.747 -2.328,1.05 -5.069,0.551 -6.876,-1.256 l -1.22,-1.221 c -2.611,-2.614 -6.854,-2.613 -9.467,0.001 l -0.472,0.472 c -2.613,2.613 -2.613,6.853 0,9.465 l 1.219,1.22 c 1.806,1.806 2.31,4.547 1.257,6.876 -0.268,0.592 -0.517,1.194 -0.748,1.804 -0.903,2.391 -3.193,3.977 -5.748,3.977 h -1.727 c -3.695,-0.002 -6.691,2.997 -6.691,6.69 v 0.669 c 0,3.696 2.996,6.693 6.691,6.693 h 1.722 c 2.557,-10e-4 4.85,1.582 5.753,3.973 0.231,0.611 0.48,1.215 0.747,1.809 1.052,2.326 0.552,5.065 -1.255,6.871 l -1.219,1.224 c -2.613,2.609 -2.613,6.851 0,9.463 l 0.475,0.473 c 2.611,2.614 6.852,2.614 9.463,0 l 1.217,-1.219 c 1.807,-1.806 4.549,-2.308 6.877,-1.255 0.592,0.269 1.197,0.517 1.809,0.748 2.389,0.901 3.974,3.193 3.974,5.747 v 1.724 c 0,3.694 2.995,6.692 6.692,6.692 h 0.669 c 3.693,0 6.692,-2.994 6.692,-6.692 v -1.721 c 0,-2.556 1.582,-4.849 3.971,-5.752 0.612,-0.23 1.216,-0.479 1.809,-0.746 2.326,-1.053 5.068,-0.551 6.873,1.251 l 1.223,1.222 c 2.609,2.615 6.85,2.615 9.465,0 l 0.473,-0.475 c 2.611,-2.611 2.611,-6.851 0,-9.464 l -1.221,-1.22 c -1.805,-1.806 -2.307,-4.547 -1.256,-6.875 0.268,-0.59 0.518,-1.194 0.749,-1.805 0.901,-2.391 3.191,-3.976 5.747,-3.976 h 1.725 c 3.694,0.004 6.691,-2.995 6.695,-6.69 v -0.669 c 0,-3.697 -3,-6.693 -6.693,-6.693 z m -36.59,21.753 c -8.131,0 -14.723,-6.592 -14.723,-14.724 0,-8.132 6.592,-14.724 14.723,-14.724 8.133,0 14.725,6.592 14.725,14.724 0,8.132 -6.592,14.724 -14.725,14.724 z"
         id="path765805"
         style="fill:#9510ac;fill-opacity:1" />
    </g>
  </g>
</svg>
