<?xml version="1.0" encoding="UTF-8" standalone="no"?>
<!-- Created with Inkscape (http://www.inkscape.org/) -->

<svg
   width="210mm"
   height="297mm"
   viewBox="0 0 210 297"
   version="1.1"
   id="svg120453"
   inkscape:version="1.1.2 (b8e25be833, 2022-02-05)"
   sodipodi:docname="stars.svg"
   xmlns:inkscape="http://www.inkscape.org/namespaces/inkscape"
   xmlns:sodipodi="http://sodipodi.sourceforge.net/DTD/sodipodi-0.dtd"
   xmlns="http://www.w3.org/2000/svg"
   xmlns:svg="http://www.w3.org/2000/svg">
  <sodipodi:namedview
     id="namedview120455"
     pagecolor="#ffffff"
     bordercolor="#666666"
     borderopacity="1.0"
     inkscape:pageshadow="2"
     inkscape:pageopacity="0.0"
     inkscape:pagecheckerboard="0"
     inkscape:document-units="mm"
     showgrid="false"
     inkscape:zoom="0.77593294"
     inkscape:cx="396.94152"
     inkscape:cy="561.25984"
     inkscape:window-width="1284"
     inkscape:window-height="1082"
     inkscape:window-x="213"
     inkscape:window-y="57"
     inkscape:window-maximized="0"
     inkscape:current-layer="layer1" />
  <defs
     id="defs120450">
    <filter
       style="color-interpolation-filters:sRGB"
       inkscape:label="Drop Shadow"
       id="filter83625"
       x="-0.12575233"
       y="-0.12129789"
       width="1.3190958"
       height="1.3057064">
      <feFlood
         flood-opacity="0.498039"
         flood-color="rgb(0,0,0)"
         result="flood"
         id="feFlood83615" />
      <feComposite
         in="flood"
         in2="SourceGraphic"
         operator="in"
         result="composite1"
         id="feComposite83617" />
      <feGaussianBlur
         in="composite1"
         stdDeviation="15"
         result="blur"
         id="feGaussianBlur83619" />
      <feOffset
         dx="19.3498"
         dy="18.7306"
         result="offset"
         id="feOffset83621" />
      <feComposite
         in="SourceGraphic"
         in2="offset"
         operator="over"
         result="composite2"
         id="feComposite83623" />
    </filter>
  </defs>
  <g
     inkscape:label="Layer 1"
     inkscape:groupmode="layer"
     id="layer1">
    <g
       id="g38503"
       style="fill:#d90368;fill-opacity:1;filter:url(#filter83625)"
       transform="matrix(0.17313252,0,0,0.17313252,75.95222,121.69804)">
      <path
         d="m 55.093,110.761 6.544,17.743 c 0.246,0.668 0.882,1.111 1.593,1.111 0.711,0 1.347,-0.443 1.593,-1.111 l 6.544,-17.743 C 76.664,96.397 87.987,85.074 102.35,79.778 l 17.743,-6.544 c 0.667,-0.246 1.11,-0.882 1.11,-1.593 0,-0.711 -0.443,-1.347 -1.11,-1.593 L 102.349,63.504 C 87.986,58.207 76.663,46.885 71.367,32.522 L 64.823,14.779 c -0.246,-0.667 -0.882,-1.11 -1.593,-1.11 -0.711,0 -1.347,0.443 -1.593,1.11 L 55.093,32.522 C 49.796,46.885 38.474,58.207 24.11,63.504 L 6.366,70.048 c -0.667,0.246 -1.11,0.882 -1.11,1.593 0,0.711 0.443,1.347 1.11,1.593 l 17.743,6.544 c 14.364,5.296 25.687,16.618 30.984,30.983 z"
         id="path38491"
         style="fill:#d90368;fill-opacity:1" />
      <path
         d="m 198.948,185.703 -17.742,-6.543 c -14.364,-5.297 -25.687,-16.619 -30.983,-30.982 l -6.544,-17.743 c -0.246,-0.667 -0.882,-1.11 -1.593,-1.11 -0.711,0 -1.347,0.443 -1.593,1.11 l -6.544,17.742 c -5.297,14.364 -16.62,25.686 -30.983,30.983 l -17.743,6.543 c -0.667,0.246 -1.11,0.882 -1.11,1.593 0,0.711 0.443,1.347 1.11,1.593 l 17.744,6.545 c 14.363,5.297 25.685,16.619 30.982,30.982 l 6.544,17.744 c 0.246,0.667 0.882,1.11 1.593,1.11 0.711,0 1.347,-0.443 1.593,-1.11 l 6.544,-17.744 c 5.297,-14.363 16.619,-25.686 30.982,-30.982 l 17.744,-6.545 c 0.667,-0.246 1.11,-0.882 1.11,-1.593 0,-0.711 -0.444,-1.347 -1.111,-1.593 z"
         id="path38493"
         style="fill:#d90368;fill-opacity:1" />
      <path
         d="m 290.778,109.811 -12.059,-4.447 c -9.761,-3.6 -17.456,-11.295 -21.056,-21.056 L 253.216,72.25 c -0.168,-0.453 -0.6,-0.755 -1.083,-0.755 -0.483,0 -0.915,0.302 -1.083,0.755 l -4.446,12.057 c -3.6,9.762 -11.295,17.457 -21.057,21.057 l -12.058,4.447 c -0.453,0.167 -0.755,0.599 -0.755,1.082 0,0.483 0.302,0.916 0.755,1.083 l 12.059,4.446 c 9.761,3.601 17.456,11.296 21.056,21.057 l 4.446,12.06 c 0.168,0.453 0.6,0.755 1.083,0.755 0.483,0 0.915,-0.302 1.083,-0.755 l 4.447,-12.06 c 3.6,-9.762 11.294,-17.456 21.056,-21.056 l 12.059,-4.447 c 0.453,-0.167 0.755,-0.6 0.755,-1.083 0,-0.483 -0.302,-0.915 -0.755,-1.082 z"
         id="path38495"
         style="fill:#d90368;fill-opacity:1" />
      <path
         d="m 261.567,268.552 -8.412,-3.103 c -6.809,-2.511 -12.176,-7.878 -14.687,-14.686 l -3.103,-8.41 c -0.116,-0.316 -0.418,-0.526 -0.755,-0.526 -0.337,0 -0.639,0.21 -0.755,0.526 l -3.103,8.41 c -2.511,6.809 -7.878,12.176 -14.686,14.686 l -8.412,3.103 c -0.316,0.116 -0.526,0.418 -0.526,0.755 0,0.337 0.21,0.639 0.526,0.755 l 8.411,3.103 c 6.81,2.511 12.177,7.879 14.688,14.688 l 3.103,8.411 c 0.116,0.316 0.418,0.526 0.755,0.526 0.337,0 0.639,-0.21 0.755,-0.526 l 3.103,-8.411 c 2.511,-6.809 7.878,-12.177 14.688,-14.688 l 8.411,-3.103 c 0.316,-0.116 0.526,-0.418 0.526,-0.755 0,-0.337 -0.21,-0.639 -0.527,-0.755 z"
         id="path38497"
         style="fill:#d90368;fill-opacity:1" />
      <path
         d="m 199.533,26.726 -8.412,-3.102 C 184.312,21.113 178.945,15.746 176.435,8.937 l -3.103,-8.41 C 173.216,0.21 172.914,0 172.577,0 c -0.337,0 -0.639,0.21 -0.755,0.526 l -3.102,8.409 c -2.511,6.809 -7.879,12.177 -14.688,14.688 l -8.412,3.102 c -0.316,0.116 -0.526,0.418 -0.526,0.755 0,0.337 0.21,0.639 0.526,0.755 l 8.411,3.103 c 6.81,2.511 12.178,7.879 14.689,14.689 l 3.102,8.41 c 0.116,0.316 0.418,0.526 0.755,0.526 0.337,0 0.639,-0.21 0.755,-0.526 l 3.103,-8.411 c 2.511,-6.81 7.878,-12.177 14.688,-14.687 l 8.411,-3.103 c 0.316,-0.116 0.526,-0.418 0.526,-0.755 0,-0.337 -0.21,-0.639 -0.527,-0.755 z"
         id="path38499"
         style="fill:#d90368;fill-opacity:1" />
      <path
         d="m 96.359,251.26 -10.58,-3.9 c -8.564,-3.158 -15.316,-9.91 -18.476,-18.475 l -3.901,-10.58 c -0.147,-0.397 -0.526,-0.662 -0.95,-0.662 -0.424,0 -0.803,0.265 -0.95,0.662 l -3.901,10.579 c -3.158,8.565 -9.91,15.317 -18.476,18.476 l -10.578,3.9 c -0.399,0.146 -0.662,0.526 -0.662,0.95 0,0.424 0.264,0.804 0.662,0.95 l 10.579,3.902 c 8.564,3.158 15.316,9.91 18.475,18.475 l 3.901,10.58 c 0.147,0.398 0.526,0.662 0.95,0.662 0.424,0 0.804,-0.264 0.95,-0.662 l 3.902,-10.581 c 3.158,-8.564 9.909,-15.315 18.474,-18.474 l 10.581,-3.902 c 0.398,-0.146 0.662,-0.526 0.662,-0.95 0,-0.424 -0.263,-0.804 -0.662,-0.95 z"
         id="path38501"
         style="fill:#d90368;fill-opacity:1" />
    </g>
  </g>
</svg>
