<?xml version="1.0" encoding="UTF-8" standalone="no"?>
<!-- Created with Inkscape (http://www.inkscape.org/) -->

<svg
   width="60.601295mm"
   height="47.245796mm"
   viewBox="0 0 60.601295 47.245796"
   version="1.1"
   id="svg70269"
   inkscape:version="1.1.1 (3bf5ae0d25, 2021-09-20)"
   sodipodi:docname="water.svg"
   xmlns:inkscape="http://www.inkscape.org/namespaces/inkscape"
   xmlns:sodipodi="http://sodipodi.sourceforge.net/DTD/sodipodi-0.dtd"
   xmlns="http://www.w3.org/2000/svg"
   xmlns:svg="http://www.w3.org/2000/svg">
  <sodipodi:namedview
     id="namedview70271"
     pagecolor="#ffffff"
     bordercolor="#666666"
     borderopacity="1.0"
     inkscape:pageshadow="2"
     inkscape:pageopacity="0.0"
     inkscape:pagecheckerboard="0"
     inkscape:document-units="mm"
     showgrid="false"
     fit-margin-top="0"
     fit-margin-left="0"
     fit-margin-right="0"
     fit-margin-bottom="0"
     inkscape:zoom="3.6233469"
     inkscape:cx="-64.029199"
     inkscape:cy="101.56356"
     inkscape:window-width="3840"
     inkscape:window-height="2066"
     inkscape:window-x="-11"
     inkscape:window-y="-11"
     inkscape:window-maximized="1"
     inkscape:current-layer="layer1" />
  <defs
     id="defs70266">
    <filter
       style="color-interpolation-filters:sRGB"
       inkscape:label="Drop Shadow"
       id="filter18029"
       x="-0.010534722"
       y="-0.013657451"
       width="1.0353352"
       height="1.0458094">
      <feFlood
         flood-opacity="0.498039"
         flood-color="rgb(0,0,0)"
         result="flood"
         id="feFlood18019" />
      <feComposite
         in="flood"
         in2="SourceGraphic"
         operator="in"
         result="composite1"
         id="feComposite18021" />
      <feGaussianBlur
         in="composite1"
         stdDeviation="2"
         result="blur"
         id="feGaussianBlur18023" />
      <feOffset
         dx="6.5"
         dy="6.5"
         result="offset"
         id="feOffset18025" />
      <feComposite
         in="SourceGraphic"
         in2="offset"
         operator="over"
         result="composite2"
         id="feComposite18027" />
    </filter>
  </defs>
  <g
     inkscape:label="Layer 1"
     inkscape:groupmode="layer"
     id="layer1"
     transform="translate(-80.403153,-121.36599)">
    <g
       id="g765925"
       transform="matrix(0.12819327,0,0,0.12819327,81.08266,115.36735)"
       style="fill:#d90368;fill-opacity:1;stroke:none;stroke-opacity:1;filter:url(#filter18029)"
       inkscape:export-filename="C:\Users\kelly\OneDrive\Documents\BlueDwarf\imagery\web svgs\water.png"
       inkscape:export-xdpi="90"
       inkscape:export-ydpi="90">
      <path
         d="m 448.838,281.276 c -5.233,-1.773 -10.908,1.033 -12.679,6.265 -4.786,14.133 -13.671,21.004 -27.165,21.004 -13.076,0 -25.091,-9.54 -29.899,-23.738 -1.414,-4.177 -5.319,-6.799 -9.498,-6.787 -0.052,-0.002 -0.103,-0.003 -0.155,-0.004 -0.042,10e-4 -0.083,0.002 -0.125,0.003 -4.185,-0.018 -8.097,2.606 -9.513,6.788 -4.808,14.199 -16.823,23.738 -29.898,23.738 -13.076,0 -25.091,-9.54 -29.899,-23.738 -1.414,-4.177 -5.319,-6.799 -9.498,-6.787 -0.052,-0.002 -0.104,-0.003 -0.155,-0.004 -0.042,10e-4 -0.084,0.002 -0.125,0.003 -4.185,-0.018 -8.097,2.606 -9.512,6.788 -4.808,14.199 -16.823,23.738 -29.898,23.738 -10.204,0 -19.745,-5.826 -25.736,-15.125 -0.147,-0.422 -0.313,-0.84 -0.521,-1.25 -18.79,-36.956 -18.596,-71.524 -8.2,-98.824 0.156,-0.282 0.32,-0.556 0.45,-0.857 0.038,-0.087 3.857,-8.792 11.222,-15.779 8.736,-8.288 18.34,-10.431 29.362,-6.551 10.022,3.528 12.84,8.78 14.194,11.304 3.24,6.038 7.692,6.88 10.854,6.521 3.264,-0.369 7.234,-2.542 8.738,-7.522 3.585,-11.007 4.727,-31.094 -8.606,-45.72 18.768,-2.962 39.764,1.82 59.161,20.666 l 0.173,0.164 c 1.5,1.389 6.917,5.76 13.675,3.637 6.024,-1.895 9.368,-8.04 8.319,-15.292 l -0.075,-0.521 -0.13,-0.511 C 363.398,141.7 356.053,113.57 332.525,88.857 310.68,65.911 270.443,41.715 202.808,56.746 c -33.124,7.361 -62.049,24.337 -85.971,50.456 -18.844,20.574 -34.316,46.911 -46.761,77.973 -23.588,58.87 -24.036,107.329 -23.545,108.78 7.552,22.306 23.927,34.59 46.108,34.59 15.419,0 29.806,-7.609 39.545,-20.048 9.738,12.439 24.125,20.048 39.544,20.048 15.419,0 29.806,-7.609 39.545,-20.048 9.739,12.439 24.126,20.048 39.545,20.048 15.419,0 29.806,-7.609 39.544,-20.048 9.739,12.439 24.126,20.048 39.545,20.048 15.419,0 29.806,-7.609 39.544,-20.048 9.739,12.439 24.126,20.048 39.545,20.048 22.181,0 38.556,-12.284 46.108,-34.59 1.77,-5.232 -1.035,-10.908 -6.266,-12.679 z M 271.695,154.647 c -2.267,-1.214 -4.809,-2.35 -7.662,-3.354 -4.674,-1.645 -9.322,-2.598 -13.89,-2.881 3.013,-2.178 6.234,-4.188 9.629,-5.978 5.9,2.881 9.844,6.914 11.923,12.213 z m -99.967,153.898 c -13.076,0 -25.091,-9.54 -29.898,-23.738 -1.414,-4.177 -5.318,-6.799 -9.498,-6.787 -0.052,-0.002 -0.104,-0.003 -0.155,-0.004 -0.042,10e-4 -0.084,0.002 -0.126,0.003 -4.185,-0.018 -8.097,2.606 -9.513,6.788 -4.808,14.199 -16.823,23.738 -29.899,23.738 -13.033,0 -21.755,-6.431 -26.649,-19.604 0.201,-2.74 3.79,-48.088 22.71,-96.482 25.532,-65.305 65.382,-104.396 118.444,-116.188 46.65,-10.368 83.776,-1.682 110.352,25.813 7.411,7.667 12.984,15.831 17.076,23.108 -30.53,-17.129 -66.477,-14.869 -96.907,7.557 -17.419,12.836 -30.92,30.8 -39.164,51.692 -0.047,0.106 -0.077,0.177 -0.09,0.207 -0.044,0.104 -0.075,0.21 -0.115,0.314 -2.244,5.761 -4.112,11.729 -5.526,17.887 -6.318,27.522 -3.61,56.563 7.772,84.78 -5.366,12.623 -16.626,20.916 -28.814,20.916 z"
         id="path765917"
         style="fill:#d90368;fill-opacity:1;stroke:none;stroke-opacity:1" />
      <path
         d="m 402.838,356.276 c -5.231,-1.773 -10.908,1.033 -12.679,6.265 -4.786,14.133 -13.671,21.004 -27.165,21.004 -13.076,0 -25.091,-9.54 -29.899,-23.738 -1.415,-4.178 -5.322,-6.802 -9.504,-6.788 -0.048,-0.002 -0.095,-0.003 -0.143,-0.003 -0.046,10e-4 -0.092,0.002 -0.138,0.003 -4.182,-0.015 -8.091,2.609 -9.506,6.788 -4.808,14.199 -16.823,23.738 -29.898,23.738 -13.076,0 -25.091,-9.54 -29.899,-23.738 -1.415,-4.178 -5.323,-6.802 -9.504,-6.788 -0.048,-0.002 -0.096,-0.003 -0.143,-0.003 -0.046,10e-4 -0.092,0.002 -0.139,0.003 -4.183,-0.015 -8.091,2.609 -9.506,6.788 -4.808,14.199 -16.823,23.738 -29.898,23.738 -13.076,0 -25.091,-9.54 -29.899,-23.738 -1.415,-4.179 -5.322,-6.802 -9.504,-6.788 -0.048,-0.002 -0.095,-0.003 -0.143,-0.003 -0.046,10e-4 -0.092,0.002 -0.138,0.003 -4.183,-0.015 -8.091,2.608 -9.507,6.788 -4.808,14.199 -16.823,23.738 -29.899,23.738 -13.076,0 -25.091,-9.54 -29.898,-23.738 -1.415,-4.179 -5.323,-6.802 -9.505,-6.788 -0.048,-0.002 -0.095,-0.003 -0.143,-0.003 -0.046,10e-4 -0.092,0.002 -0.138,0.003 -4.183,-0.016 -8.091,2.608 -9.506,6.788 -4.808,14.199 -16.823,23.738 -29.899,23.738 -13.494,0 -22.379,-6.871 -27.165,-21.004 -1.771,-5.231 -7.446,-8.037 -12.679,-6.265 -5.231,1.771 -8.036,7.447 -6.265,12.679 7.552,22.306 23.927,34.59 46.108,34.59 15.419,0 29.806,-7.609 39.545,-20.048 9.738,12.439 24.125,20.048 39.544,20.048 15.419,0 29.806,-7.609 39.545,-20.048 9.739,12.439 24.126,20.048 39.545,20.048 15.419,0 29.806,-7.609 39.544,-20.048 9.739,12.439 24.126,20.048 39.545,20.048 15.419,0 29.806,-7.609 39.544,-20.048 9.739,12.439 24.126,20.048 39.545,20.048 22.181,0 38.556,-12.284 46.108,-34.59 1.772,-5.232 -1.033,-10.908 -6.264,-12.679 z"
         id="path765919"
         style="fill:#d90368;fill-opacity:1;stroke:none;stroke-opacity:1" />
      <path
         style="fill:#d90368;fill-opacity:1;stroke:none;stroke-width:0.617186px;stroke-linecap:butt;stroke-linejoin:miter;stroke-opacity:1"
         d="m 65.990038,288.94098 c -12.137949,-1.69991 -12.137949,-1.69991 0,0"
         id="path765921" />
      <path
         style="fill:#d90368;fill-opacity:1;stroke:none;stroke-width:0.617186px;stroke-linecap:butt;stroke-linejoin:miter;stroke-opacity:1"
         d="m 56.40477,295.37453 c 0.842335,-1.05397 -0.952811,-4.82855 0,-5.78137 0.340687,-0.34068 0.9883,0.15239 1.445326,0 0.152383,-0.0506 -0.05061,-0.32945 0,-0.48177 0.433944,-1.30171 0.98867,-2.5604 1.445388,-3.85426 0.507018,-1.43669 0.845174,-2.93571 1.445326,-4.33604 0.368892,-0.86073 1.194748,-1.50668 1.445326,-2.40894 0.565342,-2.03524 0.4798,-4.20705 0.963612,-6.26314 0.362227,-1.53964 1.492603,-2.81524 1.927102,-4.33604 0.756361,-2.64736 0,-10.94553 0,-13.97172 0,-0.89165 -0.266872,-2.57183 0,-3.37247 -0.227433,-1.97015 1.886058,-2.76748 2.408938,-4.33604 0.417218,-1.25177 -0.237802,-3.02811 0,-4.33605 0.445978,-2.45287 1.517228,-4.76757 1.927101,-7.22674 0.158432,-0.95045 -0.379569,-2.00504 0,-2.89069 1.727318,-4.03039 5.263609,-9.69002 7.708529,-13.00813 0.744018,-1.00977 1.744167,-1.82707 2.408938,-2.8907 0.285943,-0.45759 -0.175898,-1.39951 0,-1.92713 0.273475,-0.82045 0.725934,-1.57736 0.963551,-2.40891 1.066559,-3.73304 -1.773114,-12.02737 -0.481775,-15.41705 1.126117,-2.95609 2.773201,-5.6992 3.854264,-8.67208 0.851963,-2.34299 1.356081,-4.79992 1.927101,-7.22674 0.160901,-0.68383 -0.38105,-2.31913 0,-2.89069 0.199228,-0.29879 0.709641,-0.22787 0.963551,-0.48179 0.908498,-0.90845 -0.406232,-2.63543 0,-3.85426 1.831314,-5.49384 1.269181,2.89624 2.408938,-3.37247 0.201079,-1.10603 -0.30884,-2.29158 0,-3.37248 0.08826,-0.30883 0.819932,0.28727 0.963551,0 0.2873,-0.57456 0,-1.28476 0,-1.92713 0.321183,-1.12416 0.335873,-2.38612 0.963551,-3.37248 0.552072,-0.86754 1.777618,-1.11544 2.408938,-1.92713 2.829057,-0.40335 0.315012,-2.39969 0.963551,-3.37248 0.272364,-0.40856 2.319199,-1.26585 2.408938,-1.44535 0.662117,-1.32429 0.457582,-2.94458 0.963551,-4.33604 0.310444,-0.85376 1.589747,-1.08365 1.927163,-1.92713 1.998941,-4.9974 -4.685306,4.5193 1.445321,-4.33605 0.84277,-1.21733 2.1817,-2.07266 2.89072,-3.37247 0.53831,-0.9869 -0.93541,-2.74891 0,-3.37248 0.40086,-0.26725 1.04446,0.26724 1.44532,0 0.26725,-0.17816 -0.20336,-0.71498 0,-0.96356 2.67964,-3.27514 6.6603,-6.36734 10.11741,-8.6721 2.93361,-1.95573 6.00034,-3.72283 9.15392,-5.2996 0.28723,-0.14364 0.73642,0.22711 0.96355,0 0.37636,-0.37634 -0.31323,-1.5095 0,-1.92713 0.40882,-0.54507 1.2061,-0.80738 1.44532,-1.44535 0.4511,-1.20295 -0.90843,-2.9458 0,-3.85426 0.25391,-0.25392 0.70964,-0.22786 0.96355,-0.48178 0.79494,-0.7949 -0.27261,-2.28188 0,-3.37248 0.22034,-0.88133 1.3991,-1.18789 1.92717,-1.92713 0.83375,-1.1673 1.20092,-3.53072 2.40893,-4.33605 0.26725,-0.17816 0.73643,0.22712 0.96356,0 0.40944,-0.40943 0.46702,-1.14743 0.96355,-1.44534 0.41314,-0.24787 1.04446,0.26724 1.44532,0 0.53449,-0.35633 -0.28724,-1.35257 0,-1.92713 0.0259,-0.052 1.39231,-0.88398 1.44539,-0.96356 0.28168,-0.422561 0.22046,-1.009881 0.48178,-1.445355 1.04619,-1.743674 1.00218,-0.239086 2.40887,-1.927133 0.45981,-0.551733 0.51492,-1.366307 0.96361,-1.927126 0.60645,-0.758052 1.23623,-0.754466 1.92711,-1.44535 0.11356,-0.113556 -0.12542,-0.381458 0,-0.481782 0.16873,-3.50045 2.33537,-0.797132 3.37248,-1.445344 7.26583,-4.541149 -1.97789,-0.459236 6.74498,-4.336046 0.29347,-0.130448 0.81987,0.287281 0.96355,0 0.53529,-1.070626 -0.80296,-1.204457 0,-2.408914 0.3563,-0.534489 1.47292,0.454231 1.9271,0 0.22713,-0.227112 -0.19268,-0.706616 0,-0.963563 0.34742,-0.463229 0.90776,-0.748523 1.44539,-0.963569 0.29816,-0.119283 0.78537,0.267248 0.96355,0 0.26724,-0.400862 -0.15238,-0.988287 0,-1.445344 0.10159,-0.304705 0.69631,0.178163 0.96355,0 1.01737,-0.678245 2.21626,-2.505288 3.37249,-2.890696 0.60941,-0.20314 1.34232,0.265816 1.9271,0 1.50526,-0.684187 2.82128,-1.746191 4.33604,-2.408913 1.12723,-0.493138 7.10091,-1.31947 7.70853,-1.927132 1.19241,-1.192379 1.59037,-1.963386 3.37249,-2.408914 0.62324,-0.155796 1.30004,0.139354 1.92716,0 2.58552,-0.574557 5.19585,-1.089574 7.70847,-1.927126 3.18277,-1.060912 2.81091,-2.078392 6.2632,-2.890695 2.11343,-1.656355 4.53472,-0.03975 6.74498,-0.481788 0.96355,-0.321184 1.9271,-0.642373 2.89065,-0.963563 0.48178,-0.481781 0.80741,-1.206111 1.44539,-1.445344 0.75186,-0.281943 1.63684,0.220588 2.40888,0 0.43678,-0.124789 0.51671,-0.882311 0.96361,-0.96357 1.422,-0.258551 2.90337,0.191026 4.33604,0 6.63784,-0.885044 0.6894,-0.344717 3.85426,-1.927126 0.43092,-0.215459 1.03219,0.247875 1.44533,0 0.68853,-0.413125 1.15247,-1.234075 1.9271,-1.44535 1.08458,-0.295787 2.26649,0.201097 3.37249,0 0.70662,-0.128474 1.23659,-0.766261 1.92716,-0.963563 1.54414,-0.44119 3.21986,0.159795 4.81782,0 2.10176,-0.210183 4.16718,-0.701568 6.26314,-0.96357 0.79679,-0.0996 1.69072,0.359104 2.40894,0 0.40629,-0.203134 0.55726,-0.760428 0.96355,-0.963563 0.68113,-0.340569 5.21115,0 5.29959,0 2.85874,0 6.13279,-0.364651 8.67214,0.481782 0.76173,0.253923 1.62505,-0.174188 2.40888,0 0.99151,0.220335 1.88883,0.796589 2.89071,0.963563 1.58407,0.26402 3.29429,-0.507839 4.81782,0 0.89257,0.297527 1.32404,1.956603 1.92716,2.408914 0.64237,0.481787 1.74077,-0.445405 2.40888,0 0.26724,0.178163 -0.29348,0.83312 0,0.963569 1.35299,0.60133 2.87935,0.698704 4.33604,0.963563 0.31599,0.05746 0.73648,-0.227112 0.96355,0 0.22712,0.227112 -0.14362,0.676287 0,0.963563 0.0718,0.143644 0.34235,-0.07967 0.48183,0 1.00546,0.574563 1.94198,1.263028 2.89066,1.927132 0.65785,0.460476 1.20894,1.086247 1.92716,1.445351 1.10606,0.553029 4.23797,0.09379 4.81781,0.963563 0.28169,0.42255 0.0755,1.140639 0.48178,1.44535 0.38543,0.289066 0.99805,-0.178934 1.44532,0 0.84351,0.337391 1.1713,1.423206 1.92717,1.927126 0.68131,0.454231 1.65301,0.166832 2.40887,0.481782 1.3259,0.552461 2.50436,1.436253 3.85427,1.927132 0.45277,0.164647 0.99805,-0.178928 1.44539,0 1.99733,0.798935 0.39314,0.786344 0.96355,1.927132 0.0718,0.143638 0.35111,-0.09334 0.48177,0 1.02064,0.729033 1.86316,1.689627 2.89072,2.408914 1.25955,0.881693 2.28531,0.839953 3.37248,1.927126 0.11351,0.113562 0,0.32119 0,0.481788 0.32119,0.642373 0.45567,1.419286 0.96356,1.927126 0.32118,0.321189 1.04384,-0.160592 1.44532,0 1.33368,0.533464 2.65909,1.130363 3.85427,1.927132 1.60591,1.070626 0.40148,1.204457 2.40893,2.408913 0.27539,0.165252 0.67625,-0.143643 0.96355,0 1.72325,0.861623 2.92985,3.211064 4.33604,4.33604 0.25083,0.200647 0.73643,-0.227112 0.96356,0 0.50788,0.507845 0.5038,1.375399 0.96355,1.927132 0.37074,0.444825 0.90775,0.748517 1.44538,0.963563 0.29823,0.11929 0.78537,-0.267241 0.96355,0 0.26725,0.400869 -0.26724,1.044483 0,1.445351 0.17819,0.267241 0.67632,-0.143638 0.96355,0 0.14369,0.07182 -0.0718,0.338144 0,0.481781 0.25898,0.5179 0.50036,1.097931 0.96356,1.445351 2.25106,1.688288 -0.59664,-3.918779 2.89071,0.963563 0.47597,0.666345 0.25681,1.621545 0.48177,2.408917 0.1606,0.32119 0.32119,0.64237 0.48178,0.96356 0.16059,0 0.41,-0.14364 0.48184,0 0.14362,0.28728 -0.26731,0.78541 0,0.96357 0.40086,0.26724 1.04446,-0.26725 1.44532,0 0.40087,0.26724 -0.43092,1.22988 0,1.44534 0.59225,0.29612 1.45891,0.0136 1.9271,0.48178 0.56325,0.56324 -0.32926,1.75037 0,2.40892 1.6316,3.26308 0.0512,0.26644 2.40894,1.44535 1.28924,0.64463 1.11513,5.60271 1.44533,6.26317 0.22712,0.45423 1.0552,0.15667 1.44539,0.48178 2.41184,2.00987 0.38716,2.31431 1.44532,3.37248 4.47522,4.47523 0.62953,-1.00211 1.9271,2.89069 0.0506,0.15236 0.32125,0 0.48184,0 0.16059,0.32119 0.36821,0.6229 0.48178,0.96357 0.37327,1.11987 -0.68644,3.42083 0,4.33604 2.09923,2.799 1.44532,-0.82472 1.44532,4.33605 0,0.32119 0.22713,0.73645 0,0.96356 -0.64459,0.6446 -5.59164,0 -6.26314,0 -2.07165,0 -15.22857,0.67028 -16.38061,-0.48178 -0.22712,-0.22711 0.14362,-0.67629 0,-0.96356 -0.30495,-0.60989 -3.16869,0.5837 -4.3361,0 -0.45419,-0.22712 -0.0278,-1.21823 -0.48177,-1.44535 -1.40916,-0.70459 -6.94834,0.38305 -8.67208,0 -0.56522,-0.12561 -0.88357,-0.82313 -1.44533,-0.96357 -1.20999,-0.30248 -4.09021,0.60471 -5.29959,0 -0.14368,-0.0718 0.15442,-0.43766 0,-0.48178 -1.3983,-0.39951 -2.98582,0.0583 -4.33604,-0.48179 -0.53763,-0.21504 -0.90776,-0.74851 -1.44539,-0.96356 -1.36824,-0.5473 -4.2642,0.38827 -5.29959,0 -0.4511,-0.16916 0.34069,-1.10467 0,-1.44534 -0.34068,-0.34068 -0.97503,0.10451 -1.44532,0 -0.99151,-0.22034 -1.90538,-0.71723 -2.89072,-0.96357 -2.97156,-0.74288 -6.68906,0.15438 -9.63563,0.48178 -2.33364,0.25929 -9.46553,-0.69235 -11.08101,0 -0.5322,0.22809 -0.44567,1.1864 -0.96356,1.44535 -0.5746,0.28728 -1.35262,-0.28728 -1.92716,0 -0.2873,0.14364 0.22713,0.73645 0,0.96356 -0.22712,0.22712 -0.69631,-0.17816 -0.96355,0 -0.29878,0.1992 -0.18299,0.76438 -0.48177,0.96357 -0.26725,0.17817 -0.73649,-0.22712 -0.96356,0 -0.22712,0.22711 0.14362,0.67628 0,0.96357 -0.029,0.0584 -3.56733,0 -4.81787,0 -2.20854,0 -4.18625,-0.54852 -5.78137,1.44534 -0.20064,0.25081 0.26724,0.78541 0,0.96357 -0.40086,0.26724 -0.97793,-0.11685 -1.44532,0 -2.16805,0.542 -2.38925,1.1484 -4.33604,1.92713 -0.71378,0.2855 -1.07064,-0.8565 -1.92717,0 -0.6115,0.61152 -0.35204,1.79739 -0.96355,2.40891 -0.28724,0.2872 -3.02482,0.26827 -3.37249,0.96357 -0.1401,0.28023 0.2533,2.28227 0,2.40891 -0.2873,0.14364 -0.67631,-0.14364 -0.96355,0 -0.29334,0.14666 0.19386,2.08575 0,2.40891 -0.41314,0.68854 -1.03224,1.23859 -1.44538,1.92713 -0.16522,0.27542 0.22712,0.73645 0,0.96357 -0.11357,0.11356 -0.36822,-0.11356 -0.48178,0 -0.97682,0.97685 -1.43206,2.39562 -2.40888,3.37248 -2.46084,2.46079 -5.39062,4.52253 -7.70852,7.22673 -1.31103,1.52954 -3.47563,4.06055 -4.33604,5.78139 -0.21546,0.43093 0.21546,1.01443 0,1.44535 -0.1606,0.32119 -0.70964,0.22786 -0.96356,0.48178 -0.58348,0.58344 -1.24523,2.97222 -1.44538,3.37248 -0.20312,0.40628 -0.76044,0.5573 -0.96355,0.96357 -0.14362,0.28728 0.1193,0.66535 0,0.96356 -0.57497,1.43745 -1.97167,4.65026 -2.89072,5.78139 -13.7796,16.95951 0.75457,-2.57713 -6.74491,8.67209 -2.97527,4.46283 1.4568,-3.22717 -2.40894,1.92713 -0.38543,0.5139 0.26088,1.34012 0,1.92713 -0.92016,2.07033 -3.63183,5.73678 -4.33604,7.70853 -0.6154,1.72318 0.57836,4.04621 0,5.78139 -0.10159,0.3047 -0.96355,-0.32119 -0.96355,0 0,0.97685 0.37389,1.91981 0.48177,2.89069 0.12177,1.09612 -0.48591,3.36429 0,4.33604 0.30471,0.60942 1.29214,0.78146 1.44533,1.44535 0.36111,1.56482 -0.18763,3.22289 0,4.81782 0.13664,1.16114 0.7858,2.21694 0.96355,3.37249 0.19886,1.2924 -0.23194,5.10332 0,6.26317 0.11356,0.56778 0.74852,0.90773 0.96361,1.44534 0.72125,1.8032 0,12.1394 0,14.45348 0,3.12915 -0.79049,16.33162 0,18.30774 0.11924,0.29822 0.67625,-0.14364 0.96355,0 0.0352,0.0175 0,4.81538 0,6.2632 0,1.11087 -0.64878,10.10784 0,11.08096 0.17818,0.26724 0.69631,-0.17812 0.96355,0 1.11834,2.23674 -0.31822,0.0818 1.44533,0.96355 0.33846,0.16923 0,2.23267 0,2.89071 0,1.31683 -0.1135,-0.7089 0.96361,1.44539 0.8474,1.69479 -0.35519,6.79769 -0.48177,8.1903 -0.15769,1.7343 0.70186,6.78652 0,8.19031 -0.20318,0.40623 -0.64243,0.64236 -0.96362,0.96355 -0.48177,0.80296 -1.12531,1.52883 -1.44532,2.40887 -1.00521,6.03121 0.375,-0.072 -1.9271,5.29966 -0.12653,0.2952 0.22706,0.73642 0,0.96355 -0.22713,0.22712 -0.64243,0 -0.96362,0 -0.48177,0.32118 -1.07464,0.51874 -1.44532,0.96355 -0.45981,0.55176 -0.49616,1.38182 -0.96355,1.92716 -3.01082,3.51259 -0.70526,0.3784 -3.37249,1.44533 -1.58506,0.63403 -2.45066,2.40073 -3.85427,3.37249 -1.06452,0.73698 -2.31179,1.18462 -3.37248,1.9271 -2.81042,1.96728 0,1.1242 -3.37249,3.37249 -0.26725,0.17818 -0.67625,-0.14362 -0.96355,0 -0.2873,0.14362 0.3047,0.86202 0,0.96355 -3.37249,1.1242 -0.85647,0.10708 -1.44533,-0.48178 -1.07779,-1.07779 -4.65377,0.53646 -6.2632,0 -0.43092,-0.14362 -0.54183,-0.79487 -0.96355,-0.96355 -0.71433,-0.28576 -2.7142,0.395 -3.37249,0 -1.57012,-0.94207 -2.52337,-3.11352 -4.33604,-3.37249 -0.15998,-0.0228 -3.23906,0.30761 -3.85427,0 -0.51788,-0.25897 -0.89603,-0.78043 -1.44532,-0.96355 -1.15858,-0.38617 -3.29071,0.58077 -4.33604,0 -0.99268,-0.55152 -1.36071,-1.97215 -2.40894,-2.40894 -1.03768,-0.43234 -2.25958,0.15899 -3.37249,0 -0.15899,-0.0228 0.13362,-0.39265 0,-0.48177 -0.89634,-0.59756 -1.94895,-0.92214 -2.89065,-1.44533 -0.50622,-0.28119 -0.90776,-0.74852 -1.44539,-0.96355 -0.29822,-0.1193 -0.73643,0.22706 -0.96355,0 -0.22712,-0.22712 0.20065,-0.71279 0,-0.96361 -4.61285,-5.76606 0.25601,0.97367 -3.37249,-1.44533 -0.26724,-0.17818 0.22713,-0.73642 0,-0.96355 -0.50782,-0.50788 -1.28473,-0.64236 -1.9271,-0.96355 -0.80296,-1.1242 -1.5608,-2.28204 -2.40894,-3.37249 -1.64881,-2.11991 -5.29959,0.4919 -5.29959,-4.33604 0,-0.22712 -0.25465,0.48178 -0.48177,0.48178 -1.447,0 -2.5662,0.53417 -3.85427,0.96355 -1.16031,0.38679 -2.21218,1.0586 -3.37249,1.44532 -0.91411,0.30471 -1.94586,-0.18892 -2.89071,0 -0.99595,0.19923 -1.89921,0.74328 -2.89065,0.96362 -0.47036,0.10449 -0.9883,-0.15239 -1.44539,0 -1.22832,0.40944 -2.37783,1.09822 -3.37249,1.9271 -0.44481,0.37068 -0.49239,1.10877 -0.96355,1.44532 -1.47211,1.0515 -4.52632,2.19601 -6.26314,2.89072 -0.14911,0.0599 -0.32119,0 -0.48178,0 -0.32124,0.48177 -0.45746,1.16413 -0.96361,1.44532 -3.05982,1.69998 -2.86053,0.18072 -4.81781,0.96362 -0.66681,0.26668 -1.2603,0.6968 -1.92711,0.96355 -0.403018,0.16121 -1.058778,-0.19331 -1.445384,0 -0.51788,0.25897 -0.907695,0.74852 -1.445326,0.96355 -1.094949,0.43801 -3.425011,-0.68329 -4.336039,0 -0.385433,0.28909 0.340686,1.1047 0,1.44539 -0.340687,0.34062 -0.975031,-0.10456 -1.445326,0 -0.99151,0.22033 -1.899205,0.74321 -2.890714,0.96355 -2.205082,0.48998 -5.682493,-0.25669 -7.708529,-0.48178 -1.694113,-0.18824 -3.713422,0.52868 -5.29959,0 -8.453966,-2.81801 -2.11559,0.10492 -3.372489,-2.40894 -0.07184,-0.14362 -0.342353,0.0797 -0.481775,0 -1.00552,-0.57454 -1.854891,-1.40922 -2.890714,-1.9271 -3.063402,-1.53173 2.703768,4.63087 -3.372489,-1.44539 -0.818882,-0.81888 -1.108219,-2.07183 -1.927101,-2.89065 -0.227125,-0.22712 -0.785431,0.26724 -0.963613,0 -0.267241,-0.40092 0.340687,-1.1047 0,-1.44539 -0.340625,-0.34068 -0.982066,0.13239 -1.445326,0 -6.814843,-1.94709 0.130226,0.13029 -1.927101,-1.9271 -0.454249,-0.45425 -1.59666,0.55084 -1.927163,0 -0.421291,-0.70217 -0.06048,-1.70676 -0.481776,-2.40894 -0.583734,-0.97287 -1.635234,1.72313 -0.481775,-2.89071 z"
         id="path765923" />
    </g>
  </g>
</svg>
